<svg width="518" height="412" viewBox="0 0 518 412" fill="none" xmlns="http://www.w3.org/2000/svg">
<path d="M187.128 409.141C162.862 405.43 141.781 398.161 118.815 385.164C82.7001 364.492 58.1795 339.427 38.8526 301.916C29.2656 283.438 19.6958 248.885 18.4882 228.389C15.9667 185.938 23.9509 151.297 44.3714 115.303C68.8725 72.5275 102.919 43.7787 149.173 26.8336C234.715 -4.23936 332.024 28.6874 382.22 105.579C384.705 110.248 390.612 120.817 395.075 129.403C401.394 142.536 402.254 143.489 399.557 135.902C368.292 49.9122 283.949 -5.04635 192.194 0.366697C172.58 1.61985 142.66 8.69561 124.053 16.8125C81.3318 35.7571 48.8984 64.9527 26.3522 105.105C6.48521 140.946 -2.70585 183.062 0.692943 224.378C2.30089 244.169 12.9602 280.503 21.9644 297.953C50.4957 352.56 96.5686 389.823 154.777 405.283C166.425 408.612 192.505 412.416 199.53 411.963C201.821 411.628 196.427 410.44 187.128 409.141Z" fill="white"/>
<path d="M147.13 272.993C146.859 272.937 146.17 272.671 145.923 272.532C145.528 272.31 145.135 271.852 144.9 271.339C144.653 270.8 144.614 270.672 144.504 270.062C144.391 269.433 144.395 269.266 144.541 268.742C144.841 267.658 145.351 266.853 146.481 265.682C147.322 264.811 147.476 264.609 148.134 263.511C148.499 262.902 149.024 261.857 149.113 261.564C149.137 261.486 149.217 261.284 149.291 261.124C149.58 260.49 150.017 258.978 150.018 258.609C150.018 258.482 149.89 258.321 149.414 257.845C148.639 257.072 148.532 256.837 148.542 255.919C148.549 255.213 148.63 254.789 149.005 253.508C149.515 251.767 149.547 251.065 149.172 249.837C149.018 249.329 148.076 247.724 147.691 247.313C147.259 246.85 146.036 245.914 145.527 245.657C145.351 245.567 144.902 245.288 144.529 245.036C143.715 244.487 143.011 244.081 141.762 243.443C141.249 243.181 140.619 242.829 140.362 242.661C140.105 242.495 139.777 242.288 139.633 242.203C139.162 241.927 136.844 240.174 136.011 239.464C135.556 239.076 134.286 237.718 133.839 237.141C133.401 236.577 133.217 236.229 133.037 235.635C132.921 235.248 132.911 235.121 132.941 234.402C132.978 233.533 132.982 233.51 133.682 231.366C134.237 229.664 134.465 229.038 135.14 227.367C135.616 226.19 136.583 223.064 136.521 222.902C136.503 222.846 136.312 222.726 136.099 222.623C135.627 222.396 135.575 222.299 135.694 221.869C135.884 221.185 136.108 220.153 136.218 219.458C136.267 219.151 136.348 218.767 136.4 218.606C136.537 218.174 136.739 217.106 136.918 215.872C137.004 215.274 137.155 214.466 137.253 214.078C137.35 213.69 137.466 213.2 137.511 212.99C137.555 212.78 137.655 212.329 137.734 211.991C137.851 211.484 137.883 211.157 137.91 210.168C137.94 209.049 137.967 208.702 138.12 207.433C138.208 206.703 138.308 203.182 138.268 202.199C138.216 200.893 138.152 200.521 137.961 200.376C137.372 199.933 136.076 198.704 135.841 198.366C135.759 198.248 135.718 198.243 135.159 198.277L134.565 198.3L134.534 198.718C134.492 199.296 134.361 206.188 134.374 207.163C134.385 207.987 134.442 208.336 134.581 208.453C134.71 208.565 135.064 208.596 135.248 208.52C135.386 208.465 135.427 208.395 135.485 208.138C135.62 207.528 136.073 207.046 136.512 207.046C136.745 207.046 137.076 207.245 137.289 207.513C137.557 207.85 137.595 208.235 137.416 208.788C137.103 209.754 136.568 210.464 135.881 210.826C135.541 211.004 135.485 211.016 134.906 211.016C134.33 211.016 134.268 211.008 133.903 210.824C132.957 210.354 132.27 209.237 132.109 207.907C132.072 207.598 132.067 206.377 132.1 204.46C132.127 202.826 132.13 201.452 132.106 201.407C132.073 201.339 132.038 201.373 131.966 201.507C131.914 201.607 131.849 201.693 131.823 201.693C131.798 201.693 131.743 201.772 131.703 201.854C131.456 202.406 130.547 203.441 129.646 204.2C129.332 204.464 129.177 204.641 129.129 204.787C129.012 205.146 129.032 206.232 129.175 207.221C129.248 207.722 129.336 208.357 129.371 208.632C129.406 208.907 129.46 209.277 129.49 209.456C129.52 209.634 129.57 210.653 129.6 211.72C129.63 212.788 129.68 213.82 129.713 214.014C129.745 214.207 129.773 214.83 129.775 215.396C129.776 215.963 129.816 216.888 129.863 217.454C129.909 218.021 129.975 218.904 130.009 219.419C130.042 219.934 130.093 220.463 130.122 220.595C130.152 220.727 130.23 221.256 130.296 221.77C130.408 222.639 130.414 222.893 130.38 225.386C130.356 227.255 130.365 228.247 130.411 228.656C130.448 228.98 130.502 229.602 130.533 230.038C130.563 230.476 130.653 231.269 130.733 231.803C130.862 232.658 131.039 234.067 131.243 235.866C131.331 236.642 131.268 237.858 131.046 239.653C130.952 240.42 130.954 241.454 131.052 241.848C131.126 242.146 131.123 242.166 130.997 242.301C130.859 242.449 130.386 242.648 129.672 242.857C129.211 242.992 129.184 243.033 129.345 243.347C129.486 243.619 129.823 244.756 129.888 245.175C130.099 246.53 130.17 247.589 130.212 250.062C130.238 251.491 130.225 252.064 130.154 252.709C130.053 253.622 129.925 257.502 129.993 257.566C130.062 257.633 130.649 257.78 130.999 257.825C131.793 257.925 131.949 258.252 131.551 258.977C131.082 259.833 130.931 260.249 130.642 261.494C130.358 262.716 130.245 263.438 130.243 264.04C130.241 264.586 130.248 264.617 130.399 264.758C130.607 264.953 130.909 265.067 132.353 265.495C133.517 265.84 134.612 266.224 134.99 266.42C136.032 266.957 137.079 267.753 137.668 268.454C138.255 269.154 138.532 269.703 138.568 270.243C138.592 270.603 138.579 270.666 138.434 270.886C138.347 271.02 138.194 271.173 138.094 271.227C137.265 271.674 136.793 271.838 135.638 272.075C134.979 272.21 134.771 272.24 133.946 272.318C133.341 272.374 133.301 272.385 132.573 272.515C132.071 272.604 130.023 272.593 128.607 272.492C128.142 272.458 127.079 272.436 126.244 272.448L124.727 272.455L124.144 272.268C123.363 272.015 123.025 271.842 122.701 271.529C122.132 270.98 122.051 270.558 122.104 268.436C122.135 267.2 122.123 266.857 122.024 266.024C121.911 265.084 121.861 264.876 121.307 263.025C121.244 262.815 121.129 262.392 121.051 262.085C120.952 261.698 120.75 261.201 120.392 260.468C119.741 259.135 119.584 258.685 119.692 258.456C119.788 258.252 120.196 258.041 120.67 257.95C120.98 257.894 121.024 257.861 121.024 257.748C121.024 257.422 120.773 255.84 120.659 255.439C120.542 255.029 120.533 254.867 120.531 253.116C120.529 251.317 120.536 251.198 120.685 250.405C120.902 249.25 121.001 248.895 121.236 248.425C121.555 247.785 121.516 247.672 120.596 246.565C120.196 246.083 119.997 245.77 119.656 245.093C119.419 244.621 119.115 243.957 118.981 243.618C118.703 242.912 118.654 242.844 118.354 242.74C118.048 242.639 116.42 242.592 115.828 242.673C115.365 242.74 114.616 243.037 114.296 243.29C114.233 243.334 114.125 243.627 114.022 244.022C113.76 245.028 112.889 247.037 112.36 247.855C112.245 248.032 111.925 248.556 111.648 249.016C111.372 249.477 111.127 249.854 111.104 249.854C111.081 249.854 110.987 249.965 110.894 250.103C110.652 250.46 110.188 251.08 109.959 251.354C109.39 252.032 107.699 254.662 107.18 255.675C106.913 256.197 106.95 256.281 107.603 256.623C107.908 256.782 108.193 256.95 108.238 256.996C108.36 257.118 108.28 257.335 107.971 257.718C106.833 259.126 105.836 261.104 105.379 262.858C105.279 263.243 105.369 263.42 105.924 263.927C106.938 264.854 107.044 265.682 106.301 266.869C106.135 267.133 105.98 267.357 105.956 267.369C105.932 267.376 105.913 267.436 105.913 267.492C105.913 267.548 105.814 267.714 105.692 267.855C105.571 267.997 105.349 268.299 105.199 268.525C104.372 269.773 102.96 270.558 100.957 270.883C100.65 270.927 100.22 271.011 100.002 271.058C99.5332 271.159 98.1749 271.17 97.4513 271.081C96.3832 270.951 95.3753 270.497 94.6611 269.825C94.3486 269.531 94.0127 268.682 94.0111 268.182C94.0102 267.883 94.2629 266.79 94.4424 266.316C94.5212 266.107 94.8365 265.436 95.1427 264.824C95.449 264.212 95.7754 263.511 95.868 263.266C96.0882 262.682 96.4967 261.327 96.8712 259.936L97.1713 258.821L97.2124 257.616C97.248 256.535 97.2656 256.385 97.3805 256.166C97.5567 255.828 97.7375 255.703 98.2901 255.532C98.5518 255.454 98.8607 255.32 98.9767 255.239C99.2047 255.081 99.2394 254.98 99.5861 253.453C99.8487 252.296 100.134 251.501 100.687 250.382C100.983 249.784 101.261 249.204 101.305 249.094C101.47 248.676 102.236 247.325 102.701 246.63C102.967 246.232 103.382 245.691 103.622 245.427C104.178 244.817 104.18 244.815 104.394 244.149C104.592 243.534 104.746 242.636 104.746 242.095V241.746L104.294 241.646C103.463 241.468 102.906 241.26 101.999 240.788C101.505 240.531 100.863 240.204 100.575 240.063C100.286 239.921 99.9735 239.726 99.8805 239.625C99.7178 239.451 99.713 239.43 99.749 239.037C99.7688 238.814 99.8655 238.329 99.9621 237.961C100.059 237.593 100.256 236.79 100.4 236.175C100.918 233.963 101.036 233.509 101.429 232.206C101.648 231.478 101.919 230.684 102.031 230.442C102.439 229.555 102.653 228.927 103.153 227.149C103.267 226.744 103.384 226.281 103.413 226.12C103.515 225.553 103.662 224.117 103.788 222.445C103.852 221.614 103.865 221.465 103.901 221.21C103.922 221.064 103.943 220.442 103.949 219.828C103.956 218.993 103.936 218.636 103.873 218.416C103.714 217.87 103.792 215.682 104.018 214.359C104.131 213.695 104.844 210.976 104.95 210.803C105.049 210.641 105.421 208.996 105.614 207.861C105.639 207.715 105.703 207.411 105.756 207.184C105.809 206.957 105.895 206.562 105.948 206.302C106 206.043 106.067 205.725 106.095 205.597C106.159 205.298 106.27 204.55 106.295 204.244C106.416 202.772 106.454 202.179 106.495 201.098C106.521 200.402 106.557 199.794 106.574 199.746C106.59 199.701 106.62 199.393 106.64 199.071C106.659 198.749 106.701 198.46 106.732 198.427C106.763 198.393 106.789 198.249 106.789 198.102C106.789 197.598 107.357 195.494 107.647 194.923C107.688 194.845 107.721 194.736 107.721 194.685C107.722 194.425 108.793 192.115 109.193 191.513C109.311 191.335 109.54 191.058 109.702 190.898C110.034 190.569 110.066 190.423 109.851 190.22C109.584 189.965 109.702 189.434 110.067 189.243C110.198 189.177 110.333 189.154 110.533 189.177L110.815 189.211L110.776 189.051C110.755 188.973 110.675 188.723 110.598 188.516C110.39 187.955 110.361 187.352 110.516 186.784C110.585 186.53 110.656 186.121 110.673 185.873C110.717 185.243 110.741 185.162 110.897 185.09C111.058 185.012 111.704 185.18 112.325 185.462C112.529 185.552 112.755 185.629 112.825 185.629C113.014 185.629 113.125 185.374 113.099 184.996C113.086 184.822 112.988 184.828 112.846 185.003C112.693 185.2 112.618 185.189 112.394 184.936C112.144 184.66 111.948 184.218 111.835 183.677C111.667 182.869 111.45 182.122 111.248 181.652C111.022 181.128 110.936 181.011 110.695 180.912C110.552 180.856 110.489 180.856 110.273 180.968C110.133 181.035 110.002 181.091 109.98 181.091C109.862 181.091 109.591 180.302 109.589 179.956C109.589 179.667 109.526 179.711 109.265 180.183C109.028 180.61 108.986 180.649 108.856 180.576C108.641 180.456 107.977 178.72 107.725 177.623C107.23 175.466 107.313 172.723 107.933 170.713C108.258 169.659 108.831 168.382 109.306 167.648C109.555 167.263 110.49 166.062 110.911 165.586C111.144 165.322 112.856 163.956 113.381 163.615C114.017 163.201 114.916 162.774 115.701 162.512C116.538 162.231 117.054 162.12 117.947 162.029C118.324 161.995 118.632 161.95 118.632 161.917C118.632 161.827 117.969 160.766 117.6 160.269C116.201 158.387 114.607 157.068 112.467 156.024C108.25 153.968 103.19 154.213 99.1743 156.667C98.8854 156.843 98.5088 157.094 98.3373 157.224C98.1659 157.354 98.0059 157.437 97.982 157.409C97.9577 157.387 97.9022 157.266 97.8592 157.154C97.8159 157.041 97.7347 156.914 97.6794 156.874C97.6239 156.84 97.3519 156.457 97.0744 156.038C95.0346 152.951 92.3321 150.827 89.0379 149.72C87.5302 149.214 86.2584 149.013 84.5297 149.012C82.1297 149.01 80.2705 149.451 78.0944 150.538C77.5072 150.833 77.0169 151.062 77.0048 151.049C76.9827 151.027 77.0314 150.881 77.265 150.274C77.3338 150.096 77.3995 149.902 77.4121 149.844C77.4809 149.527 78.5746 146.797 78.8185 146.334C78.8951 146.189 78.9577 146.05 78.9577 146.025C78.9577 145.834 80.5775 142.542 81.4237 141.013C85.9667 132.802 92.3048 125.812 99.8452 120.697C106.898 115.913 114.815 112.852 122.968 111.758C124.995 111.486 127.719 111.285 129.376 111.285H130.009L130.01 111.123C130.011 111.034 130.064 110.71 130.127 110.403C130.467 108.766 131.079 107.573 131.786 107.164C132.29 106.872 132.672 106.963 133.191 107.494C133.796 108.113 134.301 109.417 134.56 111.032C134.637 111.51 134.595 111.482 135.348 111.549C136.065 111.617 138.003 111.871 138.907 112.026C148.38 113.637 157.361 117.812 164.898 124.108C166.765 125.668 169.301 128.123 170.919 129.938C175.247 134.792 178.734 140.25 181.393 146.334C181.917 147.532 182.937 150.149 182.998 150.45C183.011 150.517 182.96 150.54 182.782 150.54C182.645 150.538 182.523 150.562 182.487 150.618C182.436 150.685 182.368 150.696 182.108 150.64C180.936 150.399 178.471 150.28 176.948 150.392C174.06 150.603 171.516 151.264 169.13 152.422C166.854 153.527 164.927 155.036 163.667 156.701C163.478 156.95 163.298 157.17 163.267 157.19C163.235 157.212 162.979 157.112 162.698 156.98C161.02 156.175 159.178 155.635 157.169 155.36C156.119 155.215 153.621 155.213 152.589 155.356C151.737 155.473 150.944 155.625 150.884 155.682C150.861 155.705 151.015 155.841 151.227 155.987C151.985 156.503 153.043 157.787 153.551 158.805C154.408 160.526 154.76 161.389 155.182 162.807C155.621 164.284 155.729 164.735 156.034 166.361C156.266 167.594 156.564 168.619 157.16 170.223C157.429 170.946 157.695 171.714 157.751 171.928C157.807 172.141 157.988 172.577 158.153 172.896C158.407 173.386 158.494 173.501 158.721 173.642C159.097 173.875 159.531 173.978 160.156 173.98C160.451 173.98 160.708 174.002 160.728 174.035C160.785 174.125 160.693 174.245 159.974 174.979C159.444 175.519 159.297 175.703 159.325 175.791C159.343 175.858 159.51 176.01 159.694 176.14C159.952 176.322 160.091 176.483 160.306 176.846C160.698 177.513 160.865 177.902 160.969 178.397C161.103 179.039 161.058 179.462 160.8 179.988C160.455 180.692 159.424 181.688 159.137 181.596C159.076 181.574 158.95 181.409 158.858 181.224C158.767 181.039 158.676 180.874 158.657 180.858C158.639 180.835 158.562 180.746 158.485 180.652C158.41 180.552 158.362 180.519 158.381 180.574C158.4 180.63 158.446 180.833 158.486 181.034C158.62 181.717 158.369 182.106 157.362 182.782C157.047 182.992 156.79 183.187 156.79 183.213C156.79 183.236 156.973 183.601 157.196 184.015C157.829 185.19 158.303 186.524 158.416 187.445C158.55 188.541 158.657 191.238 158.657 193.535C158.657 194.814 158.683 196.105 158.715 196.402C158.746 196.7 158.801 197.247 158.839 197.619C158.923 198.465 158.983 198.919 159.063 199.295C159.302 200.425 159.71 204.207 159.768 205.822C159.815 207.193 159.84 207.504 160.005 208.91C160.267 211.137 160.363 211.861 160.499 212.614C160.666 213.546 160.81 214.501 161.022 216.084C161.106 216.715 161.24 217.641 161.319 218.142C161.657 220.3 161.661 220.337 161.584 220.684C161.413 221.455 160.856 221.922 159.527 222.41L158.756 222.693L158.467 223.314C158.115 224.071 157.725 225.02 157.427 225.846C157.305 226.186 157.134 226.635 157.047 226.845C156.96 227.055 156.712 227.691 156.495 228.257C156.279 228.824 155.992 229.564 155.858 229.903C155.723 230.243 155.506 230.851 155.374 231.256L155.135 231.99L155.111 233.249C155.098 233.993 155.116 234.749 155.157 235.098C155.195 235.423 155.248 236.391 155.274 237.25C155.329 239.002 155.349 239.115 155.784 239.987C156.442 241.311 157.796 242.979 159.263 244.272C159.452 244.438 159.888 244.883 160.231 245.26C160.899 245.991 161.114 246.384 161.116 246.873C161.118 247.179 160.732 248.134 160.068 249.467C158.85 251.916 158.351 253.403 158.19 255.072C158.142 255.584 158.265 256.878 158.451 257.781C158.612 258.56 159.226 259.665 160.297 261.099C160.536 261.418 160.938 262.256 161.073 262.713C161.176 263.062 161.121 263.631 160.947 264.016C160.677 264.615 159.335 265.868 157.083 267.627C156.005 268.468 155.372 269.018 154.512 269.861C153.884 270.476 153.211 271.107 153.016 271.264C151.989 272.089 150.513 272.704 148.991 272.942C148.59 273.009 147.381 273.02 147.135 272.965L147.13 272.993ZM146.432 233.587C146.333 233.328 146.22 232.686 146.082 231.603C146 230.956 145.893 230.255 145.843 230.044C145.749 229.645 145.546 229.162 145.473 229.162C145.45 229.162 145.369 229.275 145.292 229.412C145.215 229.549 145.031 229.821 144.88 230.014C144.393 230.645 143.834 231.584 143.834 231.772C143.834 231.872 144.309 232.248 144.875 232.604C145.078 232.732 145.379 232.943 145.544 233.072C145.973 233.409 146.364 233.683 146.422 233.686C146.45 233.688 146.453 233.643 146.432 233.587ZM127.599 194.981C127.856 194.64 128.339 193.819 128.721 193.07C128.888 192.742 129.068 192.494 129.272 192.305C129.557 192.043 130.137 191.705 130.309 191.7C130.351 191.699 130.435 191.666 130.495 191.622C130.599 191.544 130.593 191.522 130.363 191.262C129.888 190.717 129.628 189.358 129.852 188.582C129.966 188.185 130.348 187.604 130.71 187.276C131.053 186.965 131.818 186.565 132.237 186.478L132.555 186.411L132.598 184.811C132.622 183.931 132.651 182.774 132.666 182.24C132.679 181.707 132.836 175.954 133.015 169.457C133.194 162.96 133.319 157.622 133.292 157.595C133.265 157.572 132.902 157.483 132.486 157.417C131.886 157.317 131.485 157.288 130.561 157.287C129.268 157.285 128.594 157.365 127.44 157.666C125.26 158.233 123.285 159.396 121.75 161.018C121.29 161.504 120.698 162.238 120.739 162.272C120.75 162.279 120.93 162.316 121.138 162.361C122.126 162.552 124.524 163.429 125.514 163.961C126.664 164.578 127.723 165.347 128.534 166.15C128.83 166.444 129.073 166.705 129.073 166.729C129.073 166.763 129.016 166.773 128.947 166.773C128.878 166.773 128.651 166.796 128.445 166.84L128.07 166.907L128.621 167.452C130.053 168.865 130.775 170.759 130.691 172.886C130.657 173.751 130.574 174.11 130.211 174.944C130.045 175.324 129.914 175.712 129.543 176.92C129.433 177.278 129.352 177.872 129.361 178.262C129.374 178.886 129.52 179.198 130.04 179.714C130.537 180.208 130.673 180.421 130.63 180.647C130.583 180.899 130.075 182.249 129.915 182.55C129.777 182.81 129.773 182.839 129.857 182.961C129.907 183.039 129.948 183.177 129.948 183.282C129.948 183.433 129.9 183.511 129.713 183.662C129.415 183.903 129.373 184.061 129.543 184.292C129.696 184.5 129.707 184.792 129.568 184.948C129.514 185.003 129.323 185.114 129.141 185.188C128.506 185.444 128.409 185.564 128.316 186.225C128.236 186.789 128.06 187.152 127.659 187.573C127.083 188.178 127.02 188.193 125.033 188.216C124.026 188.223 123.257 188.26 123.108 188.294C122.725 188.394 122.373 188.575 122.308 188.696C122.252 188.797 122.289 188.808 123.079 188.831C123.789 188.854 123.954 188.876 124.218 188.993C124.641 189.181 124.728 189.356 124.643 189.845C124.55 190.387 124.548 190.38 124.9 190.524C125.277 190.678 125.668 191.009 125.988 191.446C126.33 191.913 126.72 192.766 126.826 193.278C127.176 194.968 127.255 195.288 127.318 195.288C127.344 195.288 127.471 195.151 127.599 194.981ZM139.078 189.321C139.098 189.128 139.123 188.929 139.136 188.881C139.149 188.836 139.214 188.29 139.28 187.675C139.517 185.496 139.621 185.013 140.037 184.189C140.285 183.698 140.365 183.58 140.87 182.954C141.333 182.382 141.335 182.35 140.958 181.821C140.347 180.962 140.095 180.402 140.234 180.212C140.292 180.133 141.296 179.807 141.87 179.679C142.032 179.645 142.035 179.635 141.996 179.366C141.94 178.981 141.697 178.385 141.439 178.001C141.023 177.383 140.853 177.306 140.359 177.514C140.101 177.626 139.865 177.668 139.447 177.692C138.942 177.714 138.854 177.714 138.601 177.591C138.441 177.513 138.139 177.27 137.9 177.024C137.535 176.649 137.421 176.474 137.018 175.667C136.467 174.563 136.442 174.489 136.102 172.957C135.849 171.814 135.838 171.729 135.864 171.045C135.894 170.229 136.002 169.673 136.222 169.193C136.408 168.786 136.454 168.366 136.353 167.982C136.293 167.753 136.237 167.67 136.082 167.583C135.851 167.454 135.435 167.391 135.322 167.469C135.255 167.514 135.208 169.066 135.05 176.278C134.945 181.093 134.844 185.526 134.827 186.13L134.796 187.228L135.207 187.295C135.46 187.339 135.789 187.452 136.065 187.593C136.446 187.79 136.57 187.895 136.914 188.317C137.412 188.927 138.415 189.853 138.728 189.992L138.962 190.092L139.003 189.882C139.025 189.767 139.06 189.515 139.078 189.321ZM135.858 160.624C135.959 160.364 136.179 159.876 136.349 159.536C136.634 158.962 136.649 158.912 136.555 158.838C136.417 158.726 135.493 158.278 135.466 158.307C135.454 158.315 135.428 159.164 135.409 160.182L135.372 162.035L135.523 161.564C135.607 161.305 135.757 160.883 135.858 160.624Z" fill="white"/>
<path d="M251.68 201L241.84 168.24L232.54 201H227.32L218.98 165.24C218.78 164.32 218.62 163.68 218.5 163.32C218.38 162.92 218.2 162.66 217.96 162.54C217.76 162.42 217.44 162.34 217 162.3L213.7 161.88V160.2H230.32V161.88L227.02 162.3C226.38 162.38 226.04 162.54 226 162.78C225.96 163.02 226.08 163.84 226.36 165.24L232.6 193.2L241.78 160.2H246.76L256.54 192.6L262.9 165.24C263.22 163.84 263.34 163.02 263.26 162.78C263.18 162.54 262.84 162.38 262.24 162.3L258.94 161.88V160.2H270.58V161.88L267.28 162.3C266.84 162.34 266.52 162.42 266.32 162.54C266.12 162.66 265.94 162.92 265.78 163.32C265.66 163.68 265.5 164.32 265.3 165.24L256.96 201H251.68ZM295.76 193.86C295.04 196.66 293.7 198.66 291.74 199.86C289.78 201.02 287.5 201.6 284.9 201.6C280.1 201.6 276.5 200.22 274.1 197.46C271.7 194.66 270.5 190.96 270.5 186.36V185.16C270.5 180.56 271.62 176.88 273.86 174.12C276.14 171.36 279.42 169.98 283.7 169.98C286.1 169.98 288.22 170.46 290.06 171.42C291.94 172.34 293.4 173.68 294.44 175.44C295.52 177.2 296.06 179.34 296.06 181.86C296.06 182.46 296.02 183.1 295.94 183.78C295.9 184.46 295.8 185.14 295.64 185.82H277.88V187.56C277.88 191.8 278.48 194.86 279.68 196.74C280.88 198.58 282.82 199.5 285.5 199.5C287.22 199.5 288.68 199 289.88 198C291.08 196.96 291.76 195.22 291.92 192.78L295.76 193.86ZM283.7 172.08C281.74 172.08 280.28 172.98 279.32 174.78C278.36 176.58 277.88 179.56 277.88 183.72H288.74C288.9 182.92 289 182.18 289.04 181.5C289.12 180.78 289.16 180.12 289.16 179.52C289.16 176.96 288.66 175.08 287.66 173.88C286.66 172.68 285.34 172.08 283.7 172.08ZM331.058 199.5C330.418 200.1 329.638 200.6 328.718 201C327.838 201.4 326.758 201.6 325.478 201.6C323.838 201.6 322.458 201.24 321.338 200.52C320.258 199.8 319.538 198.78 319.178 197.46C317.858 198.9 316.398 199.96 314.798 200.64C313.238 201.28 311.638 201.6 309.998 201.6C307.238 201.6 305.178 200.84 303.818 199.32C302.458 197.76 301.778 195.82 301.778 193.5C301.778 191.14 302.638 189.24 304.358 187.8C306.078 186.32 309.118 185.58 313.478 185.58H318.938V180.72C318.938 177.4 318.498 175.14 317.618 173.94C316.778 172.7 315.598 172.08 314.078 172.08C313.078 172.08 312.158 172.34 311.318 172.86C310.478 173.34 309.878 174.26 309.518 175.62C309.198 176.94 309.258 178.86 309.698 181.38L303.098 180.42C302.778 178.58 302.978 176.88 303.698 175.32C304.458 173.72 305.718 172.44 307.478 171.48C309.238 170.48 311.478 169.98 314.198 169.98C317.278 169.98 319.658 170.48 321.338 171.48C323.018 172.48 324.178 173.8 324.818 175.44C325.498 177.08 325.838 178.84 325.838 180.72V194.58C325.838 196.62 326.018 197.9 326.378 198.42C326.738 198.94 327.138 199.2 327.578 199.2C328.298 199.2 329.098 198.78 329.978 197.94L331.058 199.5ZM312.638 198.42C313.678 198.42 314.698 198.16 315.698 197.64C316.738 197.08 317.818 196.06 318.938 194.58V187.68H314.438C312.478 187.68 311.058 188.14 310.178 189.06C309.298 189.98 308.858 191.42 308.858 193.38C308.858 194.98 309.178 196.22 309.818 197.1C310.458 197.98 311.398 198.42 312.638 198.42ZM354.103 194.76C353.583 197.2 352.583 198.96 351.103 200.04C349.663 201.08 347.903 201.6 345.823 201.6C343.703 201.6 341.963 201.14 340.603 200.22C339.243 199.26 338.243 198 337.603 196.44C336.963 194.88 336.643 193.22 336.643 191.46V175.62C336.643 174.26 336.583 173.46 336.463 173.22C336.343 172.94 335.963 172.76 335.323 172.68L332.023 172.26V170.58H336.643V163.62L343.543 162.24V170.58H353.143V172.68H343.543V192.66C343.543 195.22 343.863 197 344.503 198C345.143 198.96 345.963 199.44 346.963 199.44C348.003 199.44 348.803 199.04 349.363 198.24C349.963 197.44 350.343 195.98 350.503 193.86L354.103 194.76ZM391.335 199.32V201H375.195V199.32L378.495 198.9C379.135 198.82 379.515 198.66 379.635 198.42C379.755 198.14 379.815 197.32 379.815 195.96V180.84C379.815 178.08 379.395 176.08 378.555 174.84C377.755 173.56 376.555 172.92 374.955 172.92C374.275 172.92 373.475 173.1 372.555 173.46C371.675 173.78 370.775 174.38 369.855 175.26C368.975 176.14 368.195 177.44 367.515 179.16V195.96C367.515 197.32 367.575 198.14 367.695 198.42C367.815 198.66 368.195 198.82 368.835 198.9L372.135 199.32V201H355.995V199.32L359.295 198.9C359.935 198.82 360.315 198.66 360.435 198.42C360.555 198.14 360.615 197.32 360.615 195.96V161.64C360.615 160.28 360.555 159.48 360.435 159.24C360.315 158.96 359.935 158.78 359.295 158.7L355.995 158.28V156.6H367.515V175.26C368.675 173.42 370.115 172.08 371.835 171.24C373.595 170.4 375.355 169.98 377.115 169.98C380.075 169.98 382.415 170.92 384.135 172.8C385.855 174.68 386.715 177.34 386.715 180.78V195.96C386.715 197.32 386.775 198.14 386.895 198.42C387.015 198.66 387.395 198.82 388.035 198.9L391.335 199.32ZM420.448 193.86C419.728 196.66 418.388 198.66 416.428 199.86C414.468 201.02 412.188 201.6 409.588 201.6C404.788 201.6 401.188 200.22 398.788 197.46C396.388 194.66 395.188 190.96 395.188 186.36V185.16C395.188 180.56 396.308 176.88 398.548 174.12C400.828 171.36 404.108 169.98 408.388 169.98C410.788 169.98 412.908 170.46 414.748 171.42C416.628 172.34 418.088 173.68 419.128 175.44C420.208 177.2 420.748 179.34 420.748 181.86C420.748 182.46 420.708 183.1 420.628 183.78C420.588 184.46 420.488 185.14 420.328 185.82H402.568V187.56C402.568 191.8 403.168 194.86 404.368 196.74C405.568 198.58 407.508 199.5 410.188 199.5C411.908 199.5 413.368 199 414.568 198C415.768 196.96 416.448 195.22 416.608 192.78L420.448 193.86ZM408.388 172.08C406.428 172.08 404.968 172.98 404.008 174.78C403.048 176.58 402.568 179.56 402.568 183.72H413.428C413.588 182.92 413.688 182.18 413.728 181.5C413.808 180.78 413.848 180.12 413.848 179.52C413.848 176.96 413.348 175.08 412.348 173.88C411.348 172.68 410.028 172.08 408.388 172.08ZM425.146 172.26V170.58H436.306V175.5C438.746 171.82 441.646 169.98 445.006 169.98C446.246 169.98 447.446 170.38 448.606 171.18C449.766 171.94 450.726 173.38 451.486 175.5L446.146 178.38C445.586 176.74 444.926 175.64 444.166 175.08C443.446 174.48 442.666 174.18 441.826 174.18C440.946 174.18 440.086 174.46 439.246 175.02C438.406 175.58 437.546 176.62 436.666 178.14V195.96C436.666 197.32 436.726 198.14 436.846 198.42C436.966 198.66 437.346 198.82 437.986 198.9L442.486 199.32V201H425.146V199.32L428.446 198.9C429.086 198.82 429.466 198.66 429.586 198.42C429.706 198.14 429.766 197.32 429.766 195.96V175.62C429.766 174.26 429.706 173.46 429.586 173.22C429.466 172.94 429.086 172.76 428.446 172.68L425.146 172.26ZM245.98 271.5C245.34 272.1 244.56 272.6 243.64 273C242.76 273.4 241.68 273.6 240.4 273.6C238.76 273.6 237.38 273.24 236.26 272.52C235.18 271.8 234.46 270.78 234.1 269.46C232.78 270.9 231.32 271.96 229.72 272.64C228.16 273.28 226.56 273.6 224.92 273.6C222.16 273.6 220.1 272.84 218.74 271.32C217.38 269.76 216.7 267.82 216.7 265.5C216.7 263.14 217.56 261.24 219.28 259.8C221 258.32 224.04 257.58 228.4 257.58H233.86V252.72C233.86 249.4 233.42 247.14 232.54 245.94C231.7 244.7 230.52 244.08 229 244.08C228 244.08 227.08 244.34 226.24 244.86C225.4 245.34 224.8 246.26 224.44 247.62C224.12 248.94 224.18 250.86 224.62 253.38L218.02 252.42C217.7 250.58 217.9 248.88 218.62 247.32C219.38 245.72 220.64 244.44 222.4 243.48C224.16 242.48 226.4 241.98 229.12 241.98C232.2 241.98 234.58 242.48 236.26 243.48C237.94 244.48 239.1 245.8 239.74 247.44C240.42 249.08 240.76 250.84 240.76 252.72V266.58C240.76 268.62 240.94 269.9 241.3 270.42C241.66 270.94 242.06 271.2 242.5 271.2C243.22 271.2 244.02 270.78 244.9 269.94L245.98 271.5ZM227.56 270.42C228.6 270.42 229.62 270.16 230.62 269.64C231.66 269.08 232.74 268.06 233.86 266.58V259.68H229.36C227.4 259.68 225.98 260.14 225.1 261.06C224.22 261.98 223.78 263.42 223.78 265.38C223.78 266.98 224.1 268.22 224.74 269.1C225.38 269.98 226.32 270.42 227.56 270.42ZM247.245 230.28V228.6H258.765V267.96C258.765 269.32 258.825 270.14 258.945 270.42C259.065 270.66 259.445 270.82 260.085 270.9L263.385 271.32V273H247.245V271.32L250.545 270.9C251.185 270.82 251.565 270.66 251.685 270.42C251.805 270.14 251.865 269.32 251.865 267.96V233.64C251.865 232.28 251.805 231.48 251.685 231.24C251.565 230.96 251.185 230.78 250.545 230.7L247.245 230.28ZM287.072 266.76C286.552 269.2 285.552 270.96 284.072 272.04C282.632 273.08 280.872 273.6 278.792 273.6C276.672 273.6 274.932 273.14 273.572 272.22C272.212 271.26 271.212 270 270.572 268.44C269.932 266.88 269.612 265.22 269.612 263.46V247.62C269.612 246.26 269.552 245.46 269.432 245.22C269.312 244.94 268.932 244.76 268.292 244.68L264.992 244.26V242.58H269.612V235.62L276.512 234.24V242.58H286.112V244.68H276.512V264.66C276.512 267.22 276.832 269 277.472 270C278.112 270.96 278.932 271.44 279.932 271.44C280.972 271.44 281.772 271.04 282.332 270.24C282.932 269.44 283.312 267.98 283.472 265.86L287.072 266.76ZM316.444 265.86C315.724 268.66 314.384 270.66 312.424 271.86C310.464 273.02 308.184 273.6 305.584 273.6C300.784 273.6 297.184 272.22 294.784 269.46C292.384 266.66 291.184 262.96 291.184 258.36V257.16C291.184 252.56 292.304 248.88 294.544 246.12C296.824 243.36 300.104 241.98 304.384 241.98C306.784 241.98 308.904 242.46 310.744 243.42C312.624 244.34 314.084 245.68 315.124 247.44C316.204 249.2 316.744 251.34 316.744 253.86C316.744 254.46 316.704 255.1 316.624 255.78C316.584 256.46 316.484 257.14 316.324 257.82H298.564V259.56C298.564 263.8 299.164 266.86 300.364 268.74C301.564 270.58 303.504 271.5 306.184 271.5C307.904 271.5 309.364 271 310.564 270C311.764 268.96 312.444 267.22 312.604 264.78L316.444 265.86ZM304.384 244.08C302.424 244.08 300.964 244.98 300.004 246.78C299.044 248.58 298.564 251.56 298.564 255.72H309.424C309.584 254.92 309.684 254.18 309.724 253.5C309.804 252.78 309.844 252.12 309.844 251.52C309.844 248.96 309.344 247.08 308.344 245.88C307.344 244.68 306.024 244.08 304.384 244.08ZM321.142 244.26V242.58H332.302V247.5C334.742 243.82 337.642 241.98 341.002 241.98C342.242 241.98 343.442 242.38 344.602 243.18C345.762 243.94 346.722 245.38 347.482 247.5L342.142 250.38C341.582 248.74 340.922 247.64 340.162 247.08C339.442 246.48 338.662 246.18 337.822 246.18C336.942 246.18 336.082 246.46 335.242 247.02C334.402 247.58 333.542 248.62 332.662 250.14V267.96C332.662 269.32 332.722 270.14 332.842 270.42C332.962 270.66 333.342 270.82 333.982 270.9L338.482 271.32V273H321.142V271.32L324.442 270.9C325.082 270.82 325.462 270.66 325.582 270.42C325.702 270.14 325.762 269.32 325.762 267.96V247.62C325.762 246.26 325.702 245.46 325.582 245.22C325.462 244.94 325.082 244.76 324.442 244.68L321.142 244.26ZM384.197 271.32V273H368.057V271.32L371.357 270.9C371.997 270.82 372.377 270.66 372.497 270.42C372.617 270.14 372.677 269.32 372.677 267.96V252.84C372.677 250.08 372.257 248.08 371.417 246.84C370.617 245.56 369.417 244.92 367.817 244.92C367.137 244.92 366.337 245.1 365.417 245.46C364.537 245.78 363.637 246.38 362.717 247.26C361.837 248.14 361.057 249.44 360.377 251.16V267.96C360.377 269.32 360.437 270.14 360.557 270.42C360.677 270.66 361.057 270.82 361.697 270.9L364.997 271.32V273H348.857V271.32L352.157 270.9C352.797 270.82 353.177 270.66 353.297 270.42C353.417 270.14 353.477 269.32 353.477 267.96V247.62C353.477 246.26 353.417 245.46 353.297 245.22C353.177 244.94 352.797 244.76 352.157 244.68L348.857 244.26V242.58H360.017V247.86C361.177 245.82 362.657 244.34 364.457 243.42C366.297 242.46 368.137 241.98 369.977 241.98C372.937 241.98 375.277 242.92 376.997 244.8C378.717 246.68 379.577 249.34 379.577 252.78V267.96C379.577 269.32 379.637 270.14 379.757 270.42C379.877 270.66 380.257 270.82 380.897 270.9L384.197 271.32ZM416.839 271.5C416.199 272.1 415.419 272.6 414.499 273C413.619 273.4 412.539 273.6 411.259 273.6C409.619 273.6 408.239 273.24 407.119 272.52C406.039 271.8 405.319 270.78 404.959 269.46C403.639 270.9 402.179 271.96 400.579 272.64C399.019 273.28 397.419 273.6 395.779 273.6C393.019 273.6 390.959 272.84 389.599 271.32C388.239 269.76 387.559 267.82 387.559 265.5C387.559 263.14 388.419 261.24 390.139 259.8C391.859 258.32 394.899 257.58 399.259 257.58H404.719V252.72C404.719 249.4 404.279 247.14 403.399 245.94C402.559 244.7 401.379 244.08 399.859 244.08C398.859 244.08 397.939 244.34 397.099 244.86C396.259 245.34 395.659 246.26 395.299 247.62C394.979 248.94 395.039 250.86 395.479 253.38L388.879 252.42C388.559 250.58 388.759 248.88 389.479 247.32C390.239 245.72 391.499 244.44 393.259 243.48C395.019 242.48 397.259 241.98 399.979 241.98C403.059 241.98 405.439 242.48 407.119 243.48C408.799 244.48 409.959 245.8 410.599 247.44C411.279 249.08 411.619 250.84 411.619 252.72V266.58C411.619 268.62 411.799 269.9 412.159 270.42C412.519 270.94 412.919 271.2 413.359 271.2C414.079 271.2 414.879 270.78 415.759 269.94L416.839 271.5ZM398.419 270.42C399.459 270.42 400.479 270.16 401.479 269.64C402.519 269.08 403.599 268.06 404.719 266.58V259.68H400.219C398.259 259.68 396.839 260.14 395.959 261.06C395.079 261.98 394.639 263.42 394.639 265.38C394.639 266.98 394.959 268.22 395.599 269.1C396.239 269.98 397.179 270.42 398.419 270.42ZM439.885 266.76C439.365 269.2 438.365 270.96 436.885 272.04C435.445 273.08 433.685 273.6 431.605 273.6C429.485 273.6 427.745 273.14 426.385 272.22C425.025 271.26 424.025 270 423.385 268.44C422.745 266.88 422.425 265.22 422.425 263.46V247.62C422.425 246.26 422.365 245.46 422.245 245.22C422.125 244.94 421.745 244.76 421.105 244.68L417.805 244.26V242.58H422.425V235.62L429.325 234.24V242.58H438.925V244.68H429.325V264.66C429.325 267.22 429.645 269 430.285 270C430.925 270.96 431.745 271.44 432.745 271.44C433.785 271.44 434.585 271.04 435.145 270.24C435.745 269.44 436.125 267.98 436.285 265.86L439.885 266.76ZM450.236 237.42C448.996 237.42 447.996 237.04 447.236 236.28C446.476 235.48 446.096 234.46 446.096 233.22C446.096 231.98 446.476 230.98 447.236 230.22C447.996 229.46 448.996 229.08 450.236 229.08C451.436 229.08 452.436 229.46 453.236 230.22C454.036 230.98 454.436 231.98 454.436 233.22C454.436 234.46 454.036 235.48 453.236 236.28C452.436 237.04 451.436 237.42 450.236 237.42ZM442.196 244.26V242.58H453.716V267.96C453.716 269.32 453.776 270.14 453.896 270.42C454.016 270.66 454.396 270.82 455.036 270.9L458.336 271.32V273H442.196V271.32L445.496 270.9C446.136 270.82 446.516 270.66 446.636 270.42C446.756 270.14 446.816 269.32 446.816 267.96V247.62C446.816 246.26 446.756 245.46 446.636 245.22C446.516 244.94 446.136 244.76 445.496 244.68L442.196 244.26ZM485.882 247.62L477.362 273H471.902L463.382 247.62C463.102 246.7 462.862 246.06 462.662 245.7C462.502 245.3 462.302 245.04 462.062 244.92C461.862 244.8 461.542 244.72 461.102 244.68L457.802 244.26V242.58H474.002V244.26L470.702 244.68C470.102 244.76 469.782 244.92 469.742 245.16C469.702 245.4 469.902 246.22 470.342 247.62L476.942 267.54L483.602 247.62C484.042 246.22 484.242 245.4 484.202 245.16C484.202 244.92 483.882 244.76 483.242 244.68L479.942 244.26V242.58H491.402V244.26L488.102 244.68C487.702 244.72 487.382 244.8 487.142 244.92C486.942 245.04 486.762 245.3 486.602 245.7C486.442 246.06 486.202 246.7 485.882 247.62ZM517.42 265.86C516.7 268.66 515.36 270.66 513.4 271.86C511.44 273.02 509.16 273.6 506.56 273.6C501.76 273.6 498.16 272.22 495.76 269.46C493.36 266.66 492.16 262.96 492.16 258.36V257.16C492.16 252.56 493.28 248.88 495.52 246.12C497.8 243.36 501.08 241.98 505.36 241.98C507.76 241.98 509.88 242.46 511.72 243.42C513.6 244.34 515.06 245.68 516.1 247.44C517.18 249.2 517.72 251.34 517.72 253.86C517.72 254.46 517.68 255.1 517.6 255.78C517.56 256.46 517.46 257.14 517.3 257.82H499.54V259.56C499.54 263.8 500.14 266.86 501.34 268.74C502.54 270.58 504.48 271.5 507.16 271.5C508.88 271.5 510.34 271 511.54 270C512.74 268.96 513.42 267.22 513.58 264.78L517.42 265.86ZM505.36 244.08C503.4 244.08 501.94 244.98 500.98 246.78C500.02 248.58 499.54 251.56 499.54 255.72H510.4C510.56 254.92 510.66 254.18 510.7 253.5C510.78 252.78 510.82 252.12 510.82 251.52C510.82 248.96 510.32 247.08 509.32 245.88C508.32 244.68 507 244.08 505.36 244.08Z" fill="white"/>
<path d="M216.16 304.22V302.78H224.14V307.34C225.42 305.46 226.84 304.14 228.4 303.38C230 302.58 231.7 302.18 233.5 302.18C237.02 302.18 239.7 303.46 241.54 306.02C243.38 308.54 244.3 312.12 244.3 316.76V317.96C244.3 322.44 243.22 326 241.06 328.64C238.94 331.28 235.96 332.6 232.12 332.6C229 332.6 226.42 331.5 224.38 329.3V340.04C224.38 341.44 224.44 342.26 224.56 342.5C224.68 342.78 225.06 342.94 225.7 342.98L230.2 343.28V344.78H216.16V343.28L219.46 342.98C220.1 342.9 220.48 342.74 220.6 342.5C220.72 342.26 220.78 341.44 220.78 340.04V307.52C220.78 306.12 220.72 305.3 220.6 305.06C220.48 304.78 220.1 304.62 219.46 304.58L216.16 304.22ZM233.26 303.98C231.86 303.98 230.38 304.38 228.82 305.18C227.3 305.98 225.82 307.58 224.38 309.98V326.24C226.26 329.28 228.84 330.8 232.12 330.8C234.96 330.8 237.02 329.82 238.3 327.86C239.58 325.9 240.22 323.2 240.22 319.76V314.96C240.22 311.16 239.62 308.38 238.42 306.62C237.22 304.86 235.5 303.98 233.26 303.98ZM251.209 304.28V302.78H259.189V307.46C260.709 305.58 262.169 304.24 263.569 303.44C264.969 302.6 266.349 302.18 267.709 302.18C270.469 302.18 272.589 303.6 274.069 306.44L271.129 308.48C270.489 307.16 269.789 306.22 269.029 305.66C268.309 305.1 267.429 304.82 266.389 304.82C265.269 304.82 264.189 305.18 263.149 305.9C262.109 306.58 260.869 307.92 259.429 309.92V327.26C259.429 328.66 259.489 329.5 259.609 329.78C259.729 330.02 260.109 330.16 260.749 330.2L265.249 330.5V332H251.209V330.5L254.509 330.2C255.149 330.12 255.529 329.96 255.649 329.72C255.769 329.48 255.829 328.66 255.829 327.26V307.52C255.829 306.12 255.769 305.3 255.649 305.06C255.529 304.78 255.149 304.62 254.509 304.58L251.209 304.28ZM303.217 316.76V317.96C303.217 322.4 302.117 325.96 299.917 328.64C297.757 331.28 294.697 332.6 290.737 332.6C286.737 332.6 283.657 331.28 281.497 328.64C279.337 325.96 278.257 322.4 278.257 317.96V316.76C278.257 312.36 279.337 308.84 281.497 306.2C283.657 303.52 286.737 302.18 290.737 302.18C294.737 302.18 297.817 303.52 299.977 306.2C302.137 308.84 303.217 312.36 303.217 316.76ZM299.137 315.56C299.137 311.4 298.417 308.44 296.977 306.68C295.537 304.88 293.457 303.98 290.737 303.98C288.057 303.98 285.977 304.88 284.497 306.68C283.057 308.44 282.337 311.4 282.337 315.56V319.16C282.337 323.28 283.057 326.26 284.497 328.1C285.977 329.9 288.057 330.8 290.737 330.8C293.457 330.8 295.537 329.9 296.977 328.1C298.417 326.26 299.137 323.28 299.137 319.16V315.56ZM315.86 294.98C315.1 294.98 314.46 294.72 313.94 294.2C313.42 293.68 313.16 293.02 313.16 292.22C313.16 291.42 313.42 290.78 313.94 290.3C314.46 289.78 315.1 289.52 315.86 289.52C316.66 289.52 317.32 289.78 317.84 290.3C318.36 290.78 318.62 291.42 318.62 292.22C318.62 293.02 318.36 293.68 317.84 294.2C317.32 294.72 316.66 294.98 315.86 294.98ZM309.5 304.28V302.78H317.72V335.84C317.72 337.52 317.46 339.08 316.94 340.52C316.42 341.96 315.58 343.12 314.42 344C313.26 344.92 311.72 345.38 309.8 345.38C307.96 345.38 306.4 344.86 305.12 343.82C303.8 342.82 302.94 341.1 302.54 338.66L305.48 337.94C305.64 340.06 306.08 341.52 306.8 342.32C307.48 343.16 308.42 343.58 309.62 343.58C311.1 343.58 312.22 343.06 312.98 342.02C313.74 340.98 314.12 338.92 314.12 335.84V307.52C314.12 306.12 314.06 305.3 313.94 305.06C313.82 304.78 313.44 304.62 312.8 304.58L309.5 304.28ZM351.336 325.34C350.616 328.02 349.256 329.9 347.256 330.98C345.296 332.06 343.156 332.6 340.836 332.6C336.676 332.6 333.556 331.28 331.476 328.64C329.436 325.96 328.416 322.4 328.416 317.96V316.76C328.416 312.36 329.416 308.84 331.416 306.2C333.456 303.52 336.416 302.18 340.296 302.18C342.336 302.18 344.216 302.6 345.936 303.44C347.656 304.28 349.036 305.54 350.076 307.22C351.116 308.9 351.636 311.04 351.636 313.64C351.636 314.76 351.516 315.98 351.276 317.3H332.496V319.16C332.496 323.28 333.156 326.26 334.476 328.1C335.836 329.9 338.056 330.8 341.136 330.8C343.096 330.8 344.696 330.34 345.936 329.42C347.176 328.5 348.056 326.88 348.576 324.56L351.336 325.34ZM340.296 303.98C337.656 303.98 335.696 304.88 334.416 306.68C333.136 308.44 332.496 311.38 332.496 315.5H347.736C347.776 315.02 347.796 314.6 347.796 314.24C347.836 313.84 347.856 313.48 347.856 313.16C347.856 309.88 347.156 307.54 345.756 306.14C344.356 304.7 342.536 303.98 340.296 303.98ZM371.703 303.98C369.263 303.98 367.343 304.88 365.943 306.68C364.583 308.44 363.903 311.4 363.903 315.56V319.16C363.903 323.28 364.543 326.26 365.823 328.1C367.143 329.9 369.303 330.8 372.303 330.8C374.223 330.8 375.763 330.34 376.923 329.42C378.123 328.5 378.983 326.88 379.503 324.56L382.263 325.34C381.543 328.02 380.203 329.9 378.243 330.98C376.323 332.06 374.243 332.6 372.003 332.6C367.923 332.6 364.863 331.28 362.823 328.64C360.823 325.96 359.823 322.4 359.823 317.96V316.76C359.823 312.36 360.823 308.84 362.823 306.2C364.863 303.52 367.823 302.18 371.703 302.18C374.103 302.18 376.103 302.66 377.703 303.62C379.343 304.54 380.523 305.82 381.243 307.46C381.963 309.06 382.163 310.88 381.843 312.92L378.423 313.46C378.863 310.38 378.503 308.04 377.343 306.44C376.183 304.8 374.303 303.98 371.703 303.98ZM407.04 325.88C406.4 328.16 405.5 329.86 404.34 330.98C403.22 332.06 401.68 332.6 399.72 332.6C397.92 332.6 396.46 332.2 395.34 331.4C394.26 330.56 393.46 329.5 392.94 328.22C392.46 326.94 392.22 325.62 392.22 324.26V307.52C392.22 306.12 392.16 305.3 392.04 305.06C391.96 304.78 391.58 304.62 390.9 304.58L387.6 304.28V302.78H392.22V294.26L395.82 293.54V302.78H405.72V304.58H395.82V324.26C395.82 326.74 396.18 328.46 396.9 329.42C397.62 330.34 398.62 330.8 399.9 330.8C401.18 330.8 402.14 330.34 402.78 329.42C403.42 328.5 403.9 327.08 404.22 325.16L407.04 325.88Z" fill="white"/>
</svg>
